{"glyphs":{":":{"x_min":0,"x_max":252,"ha":252,"o":"m 91 409 q 91 431 106 446 q 121 461 142 461 q 164 461 179 446 q 194 431 194 409 q 194 387 179 372 q 164 357 142 357 q 121 357 106 372 q 91 387 91 409 z m 33 43 q 33 64 48 79 q 63 94 85 94 q 107 94 122 79 q 137 64 137 43 q 137 21 122 6 q 107 -9 85 -9 q 63 -9 48 6 q 33 21 33 43 z"},"$":{"x_min":0,"x_max":505,"ha":505,"o":"m 236 87 q 280 91 305 115 q 330 140 330 178 q 330 207 313 229 q 296 252 262 271 z m 5 51 l 21 141 q 64 116 101 103 q 138 89 172 87 l 203 307 q 130 349 95 397 q 59 446 59 503 q 59 578 114 624 q 168 671 262 676 l 274 758 l 337 758 l 325 677 q 361 675 392 668 q 423 662 449 651 l 436 567 q 395 582 365 589 q 335 596 312 597 l 279 370 q 359 325 394 281 q 428 238 428 185 q 428 104 373 54 q 318 5 225 4 l 208 -105 l 145 -105 l 161 5 q 123 8 84 19 q 46 31 5 51 z m 249 597 q 206 595 180 571 q 154 546 154 508 q 154 480 170 456 q 187 432 221 410 z"},"?":{"x_min":0,"x_max":322,"ha":322,"o":"m 29 43 q 29 65 43 80 q 58 94 80 94 q 102 94 117 79 q 132 64 132 43 q 132 21 117 6 q 102 -9 80 -9 q 59 -9 44 6 q 29 21 29 43 z m 75 174 l 75 182 q 75 235 94 284 q 112 333 156 392 q 168 408 190 435 q 248 503 248 542 q 248 574 228 593 q 208 612 176 612 q 154 612 130 600 q 105 589 65 559 l 82 657 q 106 675 133 683 q 159 692 189 692 q 257 692 297 654 q 336 615 336 549 q 336 506 320 471 q 305 436 249 376 q 189 311 164 266 q 139 221 133 174 z"},"<":{"x_min":0,"x_max":833,"ha":833,"o":"m 704 491 l 231 298 l 704 106 l 704 31 l 129 267 l 129 330 l 704 566 z"},"'":{"x_min":0,"x_max":155,"ha":155,"o":"m 112 701 l 112 430 l 44 430 l 44 701 z"},"=":{"x_min":0,"x_max":833,"ha":833,"o":"m 709 235 l 709 167 l 124 167 l 124 235 z m 709 429 l 709 361 l 124 361 l 124 429 z"},"a":{"x_min":0,"x_max":463,"ha":463,"o":"m 363 0 l 278 0 l 286 56 q 260 23 230 7 q 201 -9 167 -9 q 102 -9 58 42 q 14 94 14 172 q 14 218 29 262 q 44 306 72 343 q 116 400 174 426 q 232 451 324 451 l 429 451 z m 299 139 l 333 377 q 329 377 324 378 q 319 378 310 378 q 220 378 164 323 q 107 268 107 181 q 107 128 131 95 q 155 63 194 63 q 224 63 250 82 q 276 101 299 139 z"},"L":{"x_min":0,"x_max":424,"ha":424,"o":"m 24 0 l 126 683 l 220 683 l 130 81 l 408 81 l 395 0 z"},"3":{"x_min":0,"x_max":505,"ha":505,"o":"m 1 32 l 15 111 q 62 90 96 81 q 129 72 159 72 q 228 72 270 107 q 312 143 312 199 q 312 250 281 281 q 250 311 188 320 l 200 395 q 269 399 309 433 q 350 467 350 519 q 350 563 323 587 q 295 612 246 612 q 215 612 183 602 q 150 592 113 572 l 128 665 q 160 680 191 688 q 222 695 254 695 q 343 695 396 647 q 450 599 450 520 q 450 459 416 417 q 382 376 316 355 q 361 331 382 293 q 404 256 404 204 q 404 108 338 48 q 272 -12 166 -12 q 122 -12 80 -1 q 39 10 1 32 z"},";":{"x_min":0,"x_max":252,"ha":252,"o":"m 17 -73 q 40 -66 54 -52 q 68 -37 75 -13 q 54 -6 42 8 q 31 21 31 38 q 31 62 47 79 q 63 96 86 96 q 111 96 127 77 q 143 58 143 28 q 143 -20 108 -56 q 74 -92 17 -103 z m 91 409 q 91 431 106 446 q 121 461 142 461 q 164 461 179 446 q 194 431 194 409 q 194 387 179 372 q 164 357 142 357 q 121 357 106 372 q 91 387 91 409 z"},"J":{"x_min":0,"x_max":248,"ha":248,"o":"m 109 -66 q 97 -148 53 -190 q 10 -231 -66 -231 q -79 -231 -94 -229 q -110 -227 -129 -222 l -154 -134 q -135 -139 -118 -142 q -101 -144 -84 -144 q -33 -144 -11 -121 q 11 -98 25 -3 l 127 683 l 220 683 z"},"V":{"x_min":0,"x_max":514,"ha":514,"o":"m 228 -7 l 189 -7 l 49 683 l 139 683 l 234 215 l 453 683 l 552 683 z"},"\"":{"x_min":0,"x_max":300,"ha":300,"o":"m 256 701 l 256 430 l 188 430 l 188 701 z m 112 701 l 112 430 l 44 430 l 44 701 z"},"7":{"x_min":0,"x_max":505,"ha":505,"o":"m 85 0 l 364 597 l 88 597 l 101 683 l 494 683 l 176 0 z"},"S":{"x_min":0,"x_max":430,"ha":430,"o":"m 7 39 l 22 137 q 69 105 109 90 q 149 74 185 74 q 230 74 259 100 q 288 126 288 167 q 288 215 183 301 l 178 305 q 104 366 77 410 q 50 454 50 507 q 50 587 112 640 q 173 694 268 694 q 295 694 327 687 q 358 679 398 664 l 387 573 q 353 591 324 599 q 294 608 268 608 q 213 608 178 581 q 144 554 144 512 q 144 460 250 372 l 262 362 l 267 358 q 381 264 381 177 q 381 91 325 40 q 270 -12 176 -12 q 134 -12 92 0 q 50 13 7 39 z"},"}":{"x_min":0,"x_max":500,"ha":500,"o":"m 281 546 l 281 426 q 281 354 307 324 q 333 295 397 295 q 400 295 408 295 q 415 296 419 296 l 419 223 q 416 223 408 224 q 401 224 398 224 q 333 224 307 195 q 281 165 281 92 l 281 -28 q 281 -100 270 -131 q 259 -162 232 -178 q 211 -191 182 -197 q 152 -202 99 -202 l 78 -202 l 78 -130 l 97 -130 q 156 -130 176 -108 q 197 -86 197 -17 l 197 100 q 197 178 219 211 q 240 245 295 259 q 240 273 219 307 q 197 340 197 418 l 197 536 q 197 604 176 626 q 156 648 97 648 l 78 648 l 78 721 l 96 721 q 148 721 180 715 q 211 709 232 696 q 259 679 270 649 q 281 618 281 546 z"},"Z":{"x_min":0,"x_max":644,"ha":644,"o":"m 569 0 l -7 0 l 483 597 l 93 597 l 105 683 l 671 683 l 175 88 l 582 88 z"},"x":{"x_min":0,"x_max":422,"ha":422,"o":"m 64 0 l -42 0 l 155 241 l 51 451 l 143 451 l 212 311 l 326 451 l 433 451 l 253 229 l 368 0 l 273 0 l 194 159 z"},")":{"x_min":0,"x_max":338,"ha":338,"o":"m 86 694 l 147 694 q 193 596 216 504 q 239 413 239 324 q 239 202 189 76 q 140 -50 36 -192 l -37 -192 q 53 -45 98 91 q 142 227 142 357 q 142 425 128 508 q 115 590 86 694 z"},"&":{"x_min":0,"x_max":671,"ha":671,"o":"m 369 120 q 327 159 289 208 q 251 257 217 319 q 162 284 137 250 q 113 217 113 179 q 113 130 146 99 q 179 68 232 68 q 267 68 301 81 q 334 94 369 120 z m 252 427 q 301 453 325 485 q 349 517 349 555 q 349 582 333 598 q 318 615 293 615 q 262 615 243 590 q 223 565 223 524 q 223 505 230 481 q 237 457 252 427 z m 636 62 l 605 -9 q 600 -10 595 -11 q 589 -11 578 -11 q 542 -11 505 8 q 468 26 426 66 q 375 27 323 8 q 271 -11 216 -11 q 129 -11 71 42 q 12 95 12 172 q 12 239 54 291 q 95 343 180 384 q 160 428 149 463 q 139 499 139 526 q 139 599 184 647 q 229 695 298 695 q 359 695 399 656 q 439 618 439 558 q 439 500 403 451 q 366 402 290 356 q 327 293 361 249 q 396 204 432 171 q 460 201 487 242 q 513 282 541 343 l 630 343 q 598 267 564 212 q 530 158 490 120 q 521 90 555 76 q 590 62 632 62 z"},"_":{"x_min":0,"x_max":500,"ha":500,"o":"m 500 -166 l 500 -236 l 0 -236 l 0 -166 z"},"v":{"x_min":0,"x_max":370,"ha":370,"o":"m 149 0 l 105 0 l 4 451 l 91 451 l 150 170 l 290 451 l 380 451 z"},"O":{"x_min":0,"x_max":668,"ha":668,"o":"m 35 276 q 35 361 61 438 q 86 515 134 575 q 181 634 242 665 q 303 695 375 695 q 494 695 563 617 q 632 540 632 406 q 632 322 606 245 q 581 168 533 107 q 486 48 425 18 q 364 -12 292 -12 q 172 -12 104 65 q 35 142 35 276 z m 371 612 q 322 612 280 589 q 238 566 207 522 q 172 473 153 410 q 134 347 134 278 q 134 177 175 124 q 216 70 293 70 q 344 70 386 93 q 429 115 460 159 q 496 208 514 271 q 533 333 533 402 q 533 503 491 557 q 449 612 371 612 z"},"(":{"x_min":0,"x_max":338,"ha":338,"o":"m 225 -192 l 164 -192 q 118 -94 95 -2 q 72 90 72 179 q 72 301 121 426 q 171 552 275 694 l 348 694 q 258 547 213 411 q 169 275 169 145 q 169 77 183 -6 q 196 -88 225 -192 z"},"C":{"x_min":0,"x_max":569,"ha":569,"o":"m 519 150 l 506 48 q 458 18 408 3 q 358 -12 308 -12 q 188 -12 113 69 q 37 150 37 278 q 37 470 165 582 q 292 694 514 694 q 531 694 549 693 q 566 692 584 691 l 574 604 q 570 604 562 604 q 530 606 518 606 q 343 606 240 518 q 137 430 137 281 q 137 190 185 134 q 233 77 310 77 q 354 77 405 94 q 455 112 519 150 z"},"W":{"x_min":0,"x_max":946,"ha":946,"o":"m 247 -5 l 212 -5 l 49 683 l 140 683 l 251 203 l 481 683 l 516 683 l 649 203 l 882 683 l 973 683 l 651 -5 l 612 -5 l 480 474 z"},"A":{"x_min":0,"x_max":521,"ha":521,"o":"m 341 287 l 284 558 l 174 287 z m 56 0 l -38 0 l 257 683 l 343 683 l 485 0 l 400 0 l 358 204 l 138 204 z"},"f":{"x_min":0,"x_max":258,"ha":258,"o":"m 95 505 q 112 604 158 647 q 203 690 288 690 q 318 690 346 684 q 375 678 402 666 l 391 590 q 365 604 337 610 q 310 617 282 617 q 238 617 212 591 q 186 565 178 512 l 168 451 l 262 451 l 252 375 l 157 375 l 73 -185 l -9 -185 l 74 375 l 2 375 l 13 451 l 86 451 z"},"Q":{"x_min":0,"x_max":668,"ha":668,"o":"m 371 612 q 323 612 281 589 q 238 565 207 521 q 171 472 153 409 q 134 347 134 278 q 134 177 175 124 q 216 70 293 70 q 344 70 387 92 q 430 115 460 158 q 496 207 514 270 q 533 332 533 401 q 533 502 491 557 q 448 612 371 612 z m 229 -9 q 137 12 86 87 q 35 162 35 276 q 35 359 61 436 q 86 513 134 574 q 181 633 241 664 q 302 694 375 694 q 494 694 563 617 q 632 540 632 406 q 632 322 606 244 q 581 167 533 106 q 495 57 445 28 q 395 -1 332 -12 q 348 -63 384 -92 q 419 -120 466 -120 q 513 -120 551 -91 q 588 -62 612 -8 l 616 -8 q 614 -102 570 -152 q 525 -202 444 -202 q 368 -202 312 -153 q 257 -103 229 -9 z"},"w":{"x_min":0,"x_max":625,"ha":625,"o":"m 149 0 l 107 0 l 13 451 l 98 451 l 153 171 l 300 451 l 342 451 l 402 171 l 545 451 l 631 451 l 396 0 l 359 0 l 296 287 z"},"-":{"x_min":0,"x_max":338,"ha":338,"o":"m 18 185 l 27 266 l 283 266 l 274 185 z"},"E":{"x_min":0,"x_max":521,"ha":521,"o":"m 477 0 l 24 0 l 126 683 l 490 683 l 478 602 l 205 602 l 174 394 l 415 394 l 403 310 l 162 310 l 128 83 l 489 83 z"},"s":{"x_min":0,"x_max":366,"ha":366,"o":"m -1 53 l 20 137 q 65 101 97 85 q 129 69 157 69 q 184 69 201 82 q 218 95 218 115 q 218 146 138 203 l 136 204 q 73 249 55 275 q 38 302 38 338 q 38 393 77 427 q 117 461 182 461 q 222 461 258 449 q 293 438 325 414 l 318 323 q 279 354 244 369 q 209 384 178 384 q 154 384 140 373 q 125 362 125 344 q 125 318 187 275 q 215 255 232 243 q 274 211 291 183 q 307 156 307 120 q 307 63 266 27 q 225 -9 160 -9 q 119 -9 80 6 q 42 21 -1 53 z"},">":{"x_min":0,"x_max":833,"ha":833,"o":"m 704 330 l 704 267 l 129 31 l 129 106 l 603 298 l 129 491 l 129 566 z"},"l":{"x_min":0,"x_max":219,"ha":219,"o":"m 118 683 l 207 683 l 104 0 l 15 0 z"},"8":{"x_min":0,"x_max":505,"ha":505,"o":"m 241 314 q 180 314 141 275 q 102 235 102 174 q 102 128 134 98 q 165 67 212 67 q 276 67 314 105 q 353 143 353 205 q 353 254 323 284 q 292 314 241 314 z m 292 613 q 244 613 210 579 q 177 545 177 498 q 177 456 204 428 q 232 401 274 401 q 320 401 355 435 q 390 470 390 516 q 390 558 362 585 q 334 613 292 613 z m 165 370 q 128 391 109 425 q 90 459 90 504 q 90 584 148 639 q 207 694 294 694 q 375 694 425 647 q 475 601 475 525 q 475 465 443 419 q 411 374 358 359 q 401 336 425 299 q 448 262 448 215 q 448 117 381 53 q 314 -11 213 -11 q 127 -11 70 44 q 13 99 13 180 q 13 252 55 304 q 96 356 165 370 z"},"\\":{"x_min":0,"x_max":282,"ha":282,"o":"m 159 -93 l 52 692 l 119 692 l 227 -93 z"},"e":{"x_min":0,"x_max":448,"ha":448,"o":"m 375 132 l 361 41 q 322 15 284 3 q 246 -10 208 -10 q 123 -10 69 50 q 14 109 14 203 q 14 315 76 389 q 138 462 232 462 q 310 462 352 416 q 393 371 393 285 l 393 234 l 108 234 l 106 204 l 106 193 q 106 138 138 101 q 169 64 216 64 q 252 64 290 80 q 328 96 375 132 z m 122 297 l 312 297 l 312 309 q 312 347 291 370 q 270 392 234 392 q 191 392 164 369 q 137 346 122 297 z"},"b":{"x_min":0,"x_max":475,"ha":475,"o":"m 152 401 q 180 432 211 447 q 241 462 276 462 q 343 462 387 410 q 430 359 430 278 q 430 208 396 146 q 361 84 301 47 q 260 21 205 10 q 151 -1 63 -1 q 54 -1 36 0 q 17 0 7 0 l 110 683 l 194 683 z m 140 313 l 103 75 q 107 75 114 74 q 120 74 131 74 q 224 74 284 133 q 344 191 344 280 q 344 329 319 359 q 294 389 254 389 q 219 389 190 370 q 161 350 140 313 z"},"%":{"x_min":0,"x_max":959,"ha":959,"o":"m 609 191 q 609 142 643 107 q 678 73 727 73 q 776 73 810 107 q 844 142 844 191 q 844 241 810 275 q 776 309 727 309 q 678 309 643 275 q 609 241 609 191 z m 523 191 q 523 276 582 336 q 642 395 727 395 q 812 395 871 336 q 930 276 930 191 q 930 106 871 47 q 812 -12 727 -12 q 642 -12 582 47 q 523 106 523 191 z m 208 -12 l 669 694 l 751 694 l 288 -12 z m 113 491 q 113 442 147 407 q 182 373 231 373 q 280 373 314 407 q 349 442 349 491 q 349 540 314 574 q 280 609 231 609 q 182 609 147 575 q 113 541 113 491 z m 28 490 q 28 576 87 635 q 146 694 231 694 q 316 694 375 635 q 435 575 435 490 q 435 405 375 346 q 316 287 231 287 q 146 287 87 346 q 28 405 28 490 z"},"m":{"x_min":0,"x_max":738,"ha":738,"o":"m 7 0 l 75 451 l 162 451 l 152 388 q 190 425 227 444 q 264 462 302 462 q 345 462 372 439 q 399 417 407 375 q 456 421 496 441 q 536 462 576 462 q 627 462 655 431 q 682 400 682 341 q 682 329 680 310 q 678 292 675 270 l 635 0 l 548 0 l 591 292 q 593 305 594 316 q 595 327 595 337 q 595 363 582 377 q 569 390 543 390 q 512 390 478 367 q 443 344 407 299 l 363 0 l 277 0 l 320 292 q 322 305 323 316 q 324 327 324 337 q 324 363 311 377 q 298 390 272 390 q 241 390 207 367 q 172 344 136 299 l 94 0 z"},"#":{"x_min":0,"x_max":769,"ha":769,"o":"m 473 419 l 346 419 l 301 290 l 428 290 z m 451 712 l 372 490 l 497 490 l 577 712 l 657 712 l 579 490 l 726 490 l 701 419 l 553 419 l 508 291 l 665 291 l 640 219 l 483 219 l 404 -2 l 323 -2 l 402 219 l 276 219 l 197 -2 l 116 -2 l 194 219 l 43 219 l 69 291 l 220 291 l 265 419 l 104 419 l 129 490 l 291 490 l 370 712 z"},",":{"x_min":0,"x_max":252,"ha":252,"o":"m 17 -73 q 40 -66 54 -52 q 68 -37 75 -13 q 54 -6 42 8 q 31 21 31 38 q 31 62 47 79 q 63 96 86 96 q 111 96 127 77 q 143 58 143 28 q 143 -20 108 -56 q 74 -92 17 -103 z"},"n":{"x_min":0,"x_max":477,"ha":477,"o":"m 7 0 l 75 451 l 162 451 l 151 379 q 193 421 232 441 q 272 462 311 462 q 362 462 390 429 q 418 397 418 338 q 418 323 417 306 q 415 289 412 269 l 372 0 l 285 0 l 326 291 q 328 305 329 317 q 330 329 330 336 q 330 362 317 376 q 304 389 278 389 q 247 389 212 366 q 178 343 142 298 l 94 0 z"},"h":{"x_min":0,"x_max":477,"ha":477,"o":"m 7 0 l 109 683 l 195 683 l 150 380 q 192 421 232 442 q 271 462 311 462 q 362 462 390 430 q 418 398 418 339 q 418 325 417 307 q 415 290 412 270 l 372 0 l 285 0 l 322 250 q 328 291 330 308 q 332 325 332 334 q 332 362 319 377 q 307 391 281 391 q 251 391 215 367 q 180 343 137 293 l 94 0 z"},"z":{"x_min":0,"x_max":421,"ha":421,"o":"m 371 0 l -38 0 l -37 9 l 259 373 l 26 373 l 37 451 l 418 451 l 418 442 l 124 79 l 387 79 z"},"B":{"x_min":0,"x_max":528,"ha":528,"o":"m 24 0 l 126 683 l 212 683 q 325 683 384 640 q 444 598 444 517 q 444 469 421 433 q 397 396 353 373 q 420 347 453 302 q 487 257 487 195 q 487 137 457 92 q 427 46 372 21 q 348 10 318 5 q 288 0 229 0 l 201 0 z m 179 409 q 180 409 182 409 q 203 407 213 407 q 279 407 315 436 q 351 464 351 515 q 351 557 319 579 q 287 601 224 601 l 208 601 z m 130 74 l 209 74 q 303 74 348 104 q 393 134 393 197 q 393 262 340 297 q 287 333 190 333 l 168 333 z"},"K":{"x_min":0,"x_max":546,"ha":546,"o":"m 173 393 l 463 683 l 582 683 l 267 368 l 561 0 l 450 0 l 167 353 l 114 0 l 20 0 l 122 683 l 216 683 z"},"R":{"x_min":0,"x_max":514,"ha":514,"o":"m 112 0 l 19 0 l 121 683 l 240 683 q 358 683 416 638 q 473 592 473 499 q 473 436 437 391 q 400 347 336 331 q 353 316 369 292 q 385 268 403 230 l 513 0 l 411 0 l 308 210 q 283 263 256 282 q 229 302 184 302 q 174 302 168 302 q 163 302 157 301 z m 170 383 l 218 383 q 294 383 335 414 q 376 446 376 503 q 376 549 349 573 q 322 597 266 599 l 202 602 z"},"T":{"x_min":0,"x_max":524,"ha":524,"o":"m 258 0 l 169 0 l 258 595 l 60 595 l 74 683 l 550 683 l 537 595 l 347 595 z"},"P":{"x_min":0,"x_max":463,"ha":463,"o":"m 167 372 l 239 372 q 294 372 330 406 q 366 440 366 491 q 366 546 329 573 q 292 601 217 601 l 201 601 z m 18 0 l 120 683 l 237 683 q 344 683 401 636 q 458 588 458 500 q 458 397 396 343 q 334 288 217 288 l 154 288 l 112 0 z"},"|":{"x_min":0,"x_max":500,"ha":500,"o":"m 287 764 l 287 -236 l 214 -236 l 214 764 z"},"t":{"x_min":0,"x_max":331,"ha":331,"o":"m 152 191 q 148 169 146 154 q 144 139 144 128 q 144 100 158 86 q 172 72 200 72 q 216 72 236 78 q 255 85 276 98 l 276 19 q 247 4 222 -3 q 196 -10 174 -10 q 120 -10 86 24 q 52 57 52 112 q 52 126 54 145 q 57 163 63 193 l 103 387 l 27 387 l 41 451 l 118 451 l 140 546 l 229 546 l 208 451 l 297 451 l 282 387 l 193 387 z"},"M":{"x_min":0,"x_max":805,"ha":805,"o":"m 72 0 l -18 0 l 203 683 l 281 683 l 392 225 l 633 683 l 715 683 l 733 0 l 647 0 l 635 516 l 360 0 l 237 516 z"},"g":{"x_min":0,"x_max":417,"ha":417,"o":"m 104 277 q 104 239 127 213 q 150 188 184 188 q 222 188 247 218 q 273 247 273 291 q 273 331 251 355 q 229 379 194 379 q 155 379 129 350 q 104 322 104 277 z m 163 -41 q 93 -61 69 -75 q 46 -88 46 -106 q 46 -132 74 -147 q 103 -162 153 -162 q 203 -162 230 -148 q 258 -133 258 -108 q 258 -87 236 -71 q 214 -55 163 -41 z m 88 -17 q 47 1 31 18 q 15 36 15 59 q 15 85 36 107 q 57 129 97 144 q 60 164 42 196 q 24 229 24 274 q 24 358 80 405 q 135 451 237 451 l 412 451 l 402 382 l 325 382 q 342 362 350 341 q 358 319 358 294 q 358 241 330 199 q 302 156 254 136 q 220 122 173 114 q 165 113 161 112 q 128 106 114 98 q 100 90 100 78 q 100 53 168 36 q 205 26 226 19 q 291 -1 318 -28 q 345 -55 345 -97 q 345 -155 294 -191 q 242 -227 156 -227 q 69 -227 17 -196 q -36 -164 -36 -115 q -36 -80 -4 -54 q 29 -28 88 -17 z"},"j":{"x_min":0,"x_max":227,"ha":227,"o":"m 97 -57 l 97 -61 q 84 -149 52 -183 q 32 -204 4 -216 q -23 -227 -54 -227 q -67 -227 -82 -225 q -97 -223 -112 -219 l -101 -143 q -90 -146 -80 -147 q -70 -148 -60 -148 q -3 -148 11 -46 l 12 -42 l 85 451 l 172 451 z m 100 591 q 100 611 114 625 q 127 638 147 638 q 167 638 180 624 q 194 610 194 591 q 194 571 180 558 q 167 544 147 544 q 127 544 114 557 q 100 571 100 591 z"},"i":{"x_min":0,"x_max":219,"ha":219,"o":"m 96 591 q 96 611 110 625 q 124 638 144 638 q 164 638 177 624 q 191 610 191 591 q 191 571 177 558 q 164 544 144 544 q 124 544 110 557 q 96 571 96 591 z m 102 0 l 15 0 l 81 451 l 168 451 z"},"y":{"x_min":0,"x_max":391,"ha":391,"o":"m 68 -227 l -22 -227 l 100 28 l 19 451 l 104 451 l 161 155 l 303 451 l 396 451 z"},"@":{"x_min":0,"x_max":1000,"ha":1000,"o":"m 627 417 l 655 473 l 719 473 l 648 192 q 646 184 645 177 q 644 169 644 163 q 644 141 656 129 q 669 117 693 117 q 716 117 743 130 q 770 143 795 167 q 834 204 856 258 q 878 312 878 372 q 878 499 785 577 q 692 656 541 656 q 476 656 421 642 q 366 628 318 600 q 225 544 173 454 q 122 363 122 254 q 122 167 152 104 q 182 40 246 -9 q 295 -46 362 -67 q 428 -87 502 -87 q 584 -87 662 -63 q 740 -39 805 6 l 832 -34 q 760 -88 678 -116 q 597 -143 508 -143 q 415 -143 338 -120 q 261 -97 201 -52 q 126 6 89 82 q 52 158 52 255 q 52 335 77 408 q 103 480 151 539 q 222 626 323 671 q 423 716 545 716 q 625 716 696 694 q 768 672 820 632 q 883 583 916 519 q 949 455 949 381 q 949 295 918 227 q 887 159 828 112 q 795 85 755 71 q 715 57 674 57 q 625 57 601 76 q 576 96 576 134 l 576 143 q 549 100 513 79 q 477 58 429 58 q 354 58 315 100 q 276 141 276 220 q 276 335 343 413 q 411 490 509 490 q 550 490 580 472 q 609 454 627 417 z m 581 232 l 610 347 q 602 390 576 414 q 551 437 513 437 q 446 437 400 374 q 354 310 354 218 q 354 167 378 139 q 401 111 445 111 q 492 111 530 145 q 568 178 581 232 z"},".":{"x_min":0,"x_max":252,"ha":252,"o":"m 33 43 q 33 64 48 79 q 63 94 85 94 q 107 94 122 79 q 137 64 137 43 q 137 21 122 6 q 107 -9 85 -9 q 63 -9 48 6 q 33 21 33 43 z"},"p":{"x_min":0,"x_max":475,"ha":475,"o":"m 71 -227 l -16 -227 l 67 334 q 39 313 20 284 q 0 255 -4 255 q -7 255 -9 258 q -11 261 -11 265 q -11 283 14 323 q 39 363 77 397 l 101 561 l 187 561 l 171 448 q 190 456 209 459 q 228 463 246 463 q 330 463 381 403 q 431 342 431 241 q 431 178 398 120 q 366 62 311 29 q 280 11 234 1 q 188 -8 129 -8 l 103 -8 z m 114 66 q 119 65 125 65 q 130 65 140 65 q 235 65 289 114 q 343 163 343 250 q 343 318 309 358 q 274 398 215 398 q 203 398 190 395 q 176 392 161 385 z"},"X":{"x_min":0,"x_max":630,"ha":630,"o":"m 81 0 l -36 0 l 273 357 l 66 683 l 175 683 l 335 428 l 556 683 l 679 683 l 387 347 l 610 0 l 505 0 l 324 275 z"},"*":{"x_min":0,"x_max":442,"ha":442,"o":"m 356 660 l 404 612 l 266 506 l 439 529 l 439 461 l 266 484 l 404 378 l 356 330 l 251 468 l 273 296 l 205 296 l 228 468 l 122 330 l 74 378 l 212 484 l 40 461 l 40 529 l 212 507 l 74 612 l 122 660 l 228 522 l 205 695 l 273 695 l 251 522 z"},"Y":{"x_min":0,"x_max":485,"ha":485,"o":"m 239 0 l 146 0 l 197 344 l 35 683 l 133 683 l 248 437 l 419 683 l 527 683 l 291 344 z"},"c":{"x_min":0,"x_max":412,"ha":412,"o":"m 349 112 l 341 24 q 307 7 274 -1 q 242 -9 209 -9 q 118 -9 63 44 q 9 97 9 184 q 9 305 88 383 q 168 461 291 461 q 312 461 336 458 q 359 456 382 450 l 374 377 q 354 381 337 383 q 320 385 306 385 q 216 385 158 331 q 100 277 100 195 q 100 135 132 100 q 164 66 219 66 q 252 66 284 77 q 316 89 349 112 z"},"!":{"x_min":0,"x_max":252,"ha":252,"o":"m 80 174 q 100 312 108 483 q 111 535 113 551 q 122 631 135 661 q 149 692 175 692 q 197 692 209 679 q 220 667 220 641 q 220 605 182 447 q 143 289 121 174 z m 33 43 q 33 64 48 79 q 63 94 85 94 q 107 94 122 79 q 137 64 137 43 q 137 21 122 6 q 107 -9 85 -9 q 63 -9 48 6 q 33 21 33 43 z"},"/":{"x_min":0,"x_max":282,"ha":282,"o":"m 43 -93 l -24 -93 l 210 692 l 281 692 z"},"[":{"x_min":0,"x_max":338,"ha":338,"o":"m 143 -109 l 272 -109 l 261 -181 l 52 -181 l 180 683 l 389 683 l 379 613 l 250 613 z"},"6":{"x_min":0,"x_max":505,"ha":505,"o":"m 117 170 q 117 123 143 95 q 169 68 213 68 q 273 68 316 116 q 359 165 359 228 q 359 277 333 306 q 307 334 262 334 q 205 334 161 284 q 117 234 117 170 z m 199 397 q 217 408 238 413 q 259 418 286 418 q 359 418 405 368 q 450 318 450 237 q 450 190 433 147 q 415 104 382 69 q 345 30 299 9 q 253 -12 203 -12 q 123 -12 73 41 q 24 93 24 179 q 24 238 53 308 q 82 378 146 471 l 291 683 l 394 683 z"},"r":{"x_min":0,"x_max":312,"ha":312,"o":"m 92 0 l 8 0 l 75 451 l 159 451 l 147 366 q 180 418 207 438 q 233 458 265 458 q 273 458 283 456 q 292 454 303 450 l 281 369 q 274 371 268 371 q 262 372 256 372 q 218 372 188 344 q 158 316 130 255 z"},"2":{"x_min":0,"x_max":505,"ha":505,"o":"m -1 0 l 0 10 q 177 222 257 343 q 338 463 338 516 q 338 555 311 577 q 284 600 238 600 q 208 600 172 586 q 135 572 96 546 l 110 640 q 145 663 181 675 q 217 686 255 686 q 333 686 379 643 q 425 600 425 526 q 425 459 371 367 q 318 274 160 82 l 418 82 l 403 0 z"},"{":{"x_min":0,"x_max":500,"ha":500,"o":"m 423 648 l 403 648 q 344 648 324 626 q 304 604 304 536 l 304 418 q 304 340 282 307 q 261 273 206 259 q 261 245 283 212 q 304 179 304 100 l 304 -18 q 304 -87 324 -108 q 345 -130 404 -130 l 423 -130 l 423 -202 l 402 -202 q 349 -202 319 -197 q 290 -191 269 -178 q 242 -162 231 -131 q 220 -100 220 -28 l 220 92 q 220 165 194 194 q 167 224 103 224 q 100 224 93 224 q 85 223 82 223 l 82 296 q 86 296 93 295 q 101 295 104 295 q 167 295 194 324 q 220 354 220 426 l 220 546 q 220 618 231 649 q 242 679 269 696 q 291 709 322 715 q 353 721 405 721 l 423 721 z"},"9":{"x_min":0,"x_max":505,"ha":505,"o":"m 298 286 q 280 275 259 270 q 238 265 211 265 q 138 265 92 315 q 46 365 46 446 q 46 492 64 535 q 82 578 115 614 q 152 654 198 674 q 243 695 293 695 q 374 695 423 642 q 473 589 473 503 q 473 444 444 375 q 416 306 351 212 l 205 0 l 103 0 z m 379 512 q 379 559 353 587 q 328 615 284 615 q 224 615 181 567 q 137 519 137 455 q 137 406 163 377 q 189 349 234 349 q 292 349 335 399 q 379 448 379 512 z"}," ":{"x_min":0,"x_max":252,"ha":252,"o":""},"I":{"x_min":0,"x_max":250,"ha":250,"o":"m 121 0 l 28 0 l 129 683 l 223 683 z"},"H":{"x_min":0,"x_max":725,"ha":725,"o":"m 25 0 l 127 683 l 221 683 l 177 389 l 562 389 l 606 683 l 699 683 l 597 0 l 504 0 l 550 306 l 165 306 l 119 0 z"},"4":{"x_min":0,"x_max":505,"ha":505,"o":"m 281 282 l 318 504 l 133 282 z m 234 0 l 268 211 l 11 211 l 12 252 l 378 683 l 427 683 l 364 282 l 461 282 l 450 211 l 353 211 l 319 0 z"},"~":{"x_min":0,"x_max":833,"ha":833,"o":"m 747 300 q 696 265 650 248 q 604 231 557 231 q 512 231 432 259 q 421 263 416 265 l 408 268 q 322 297 275 297 q 234 297 189 279 q 145 261 87 220 l 87 296 q 139 331 186 349 q 232 366 276 366 q 306 366 338 360 q 370 353 418 336 q 426 333 441 328 q 519 300 558 300 q 601 300 646 318 q 690 336 747 376 z"},"D":{"x_min":0,"x_max":662,"ha":662,"o":"m 133 83 l 225 83 q 376 83 451 147 q 527 211 527 340 q 527 461 453 531 q 378 600 248 600 l 210 600 z m 24 0 l 126 683 l 211 683 q 300 683 359 672 q 417 660 461 635 q 539 590 583 512 q 626 434 626 340 q 626 258 595 189 q 565 121 509 77 q 456 36 389 18 q 323 0 198 0 z"},"^":{"x_min":0,"x_max":1000,"ha":1000,"o":"m 545 712 l 794 440 l 706 440 l 500 645 l 293 440 l 205 440 l 454 712 z"},"0":{"x_min":0,"x_max":505,"ha":505,"o":"m 23 237 q 23 335 50 428 q 76 520 124 589 q 160 640 207 667 q 255 694 307 694 q 389 694 436 629 q 482 565 482 451 q 482 342 454 245 q 426 148 375 80 q 341 36 297 12 q 253 -11 203 -11 q 114 -11 69 52 q 23 115 23 237 z m 303 615 q 273 615 244 593 q 214 571 191 531 q 156 470 136 390 q 116 309 116 227 q 116 150 139 109 q 163 68 206 68 q 234 68 261 87 q 288 106 310 142 q 348 204 369 287 q 390 369 390 455 q 390 535 368 575 q 347 615 303 615 z"},"F":{"x_min":0,"x_max":477,"ha":477,"o":"m 24 0 l 126 683 l 490 683 l 478 602 l 205 602 l 174 394 l 415 394 l 403 310 l 162 310 l 117 0 z"},"`":{"x_min":0,"x_max":500,"ha":500,"o":"m 333 517 l 284 517 l 145 687 l 226 687 z"},"k":{"x_min":0,"x_max":456,"ha":456,"o":"m 98 0 l 9 0 l 111 683 l 200 683 l 137 259 l 329 451 l 437 451 l 225 245 l 449 0 l 337 0 l 132 225 z"},"u":{"x_min":0,"x_max":477,"ha":477,"o":"m 436 451 l 369 0 l 282 0 l 292 73 q 250 31 210 10 q 171 -10 132 -10 q 81 -10 53 22 q 25 55 25 114 q 25 129 26 146 q 28 164 31 183 l 72 451 l 158 451 l 118 164 q 116 150 115 138 q 114 126 114 119 q 114 93 127 79 q 141 66 166 66 q 197 66 231 89 q 266 112 302 157 l 349 451 z"},"]":{"x_min":0,"x_max":338,"ha":338,"o":"m 69 683 l 278 683 l 149 -181 l -61 -181 l -50 -111 l 78 -111 l 187 611 l 58 611 z"},"U":{"x_min":0,"x_max":650,"ha":650,"o":"m 118 683 l 214 683 l 154 282 q 150 254 148 239 q 147 223 147 211 q 147 150 187 113 q 226 76 291 76 q 373 76 419 122 q 464 167 479 264 l 542 683 l 635 683 l 573 268 l 572 264 q 554 142 512 89 q 473 42 413 15 q 354 -11 282 -11 q 181 -11 116 49 q 52 110 52 205 q 52 215 54 232 q 56 250 62 296 z"},"o":{"x_min":0,"x_max":454,"ha":454,"o":"m 12 192 q 12 305 76 383 q 140 461 228 461 q 311 461 359 407 q 407 353 407 259 q 407 143 344 67 q 280 -9 184 -9 q 104 -9 58 45 q 12 98 12 192 z m 231 389 q 180 389 142 329 q 104 269 104 185 q 104 127 127 94 q 149 61 188 61 q 244 61 280 119 q 316 176 316 268 q 316 326 294 357 q 271 389 231 389 z"},"N":{"x_min":0,"x_max":701,"ha":701,"o":"m 117 0 l 25 0 l 127 683 l 179 683 l 516 176 l 588 683 l 679 683 l 578 0 l 529 0 l 189 506 z"},"+":{"x_min":0,"x_max":833,"ha":833,"o":"m 451 596 l 451 332 l 709 332 l 709 264 l 451 264 l 451 0 l 382 0 l 382 264 l 124 264 l 124 332 l 382 332 l 382 596 z"},"G":{"x_min":0,"x_max":644,"ha":644,"o":"m 566 65 q 509 26 450 7 q 391 -12 330 -12 q 200 -12 119 72 q 37 157 37 291 q 37 373 67 444 q 98 515 156 571 q 219 632 309 663 q 399 694 512 694 q 542 694 576 691 q 609 688 649 681 l 636 597 q 600 603 565 605 q 531 608 499 608 q 336 608 237 521 q 137 433 137 292 q 137 192 193 134 q 248 76 344 76 q 379 76 413 85 q 447 94 484 113 l 502 229 l 399 229 l 407 305 l 602 305 z"},"q":{"x_min":0,"x_max":475,"ha":475,"o":"m 308 138 l 344 376 q 339 376 333 377 q 328 377 316 377 q 223 377 164 319 q 104 261 104 172 q 104 123 129 93 q 154 62 194 62 q 229 62 258 82 q 287 101 308 138 z m 296 50 q 268 19 238 4 q 207 -11 172 -11 q 105 -11 62 41 q 18 93 18 174 q 18 245 52 306 q 87 368 147 405 q 188 430 242 441 q 295 452 381 452 q 390 452 410 452 q 430 451 441 451 l 337 -227 l 254 -227 z"},"d":{"x_min":0,"x_max":463,"ha":463,"o":"m 363 -1 q 321 -5 293 -7 q 266 -9 248 -9 q 138 -9 75 44 q 12 97 12 188 q 12 253 42 310 q 73 367 129 408 q 167 436 215 449 q 263 463 326 463 l 346 463 l 378 683 l 465 683 z m 286 68 l 332 387 q 329 387 322 388 q 314 388 311 388 q 218 388 160 335 q 102 283 102 200 q 102 139 140 101 q 178 63 239 63 q 253 63 264 64 q 276 65 286 68 z"},"1":{"x_min":0,"x_max":505,"ha":505,"o":"m 150 0 l 264 683 l 356 683 l 242 0 z"},"5":{"x_min":0,"x_max":505,"ha":505,"o":"m -18 46 l 13 120 q 50 98 83 86 q 116 75 145 75 q 219 75 265 118 q 310 160 310 230 q 310 287 273 318 q 236 349 169 349 q 157 349 143 348 q 129 347 111 344 l 172 683 l 450 683 l 438 597 l 243 597 l 212 430 q 305 422 355 369 q 406 315 406 225 q 406 126 334 57 q 262 -11 155 -11 q 108 -11 65 3 q 22 17 -18 46 z"}}}
